<?xml version="1.0" encoding="UTF-8" standalone="no"?>
<svg width="16px" height="24px" viewBox="0 0 16 24" version="1.1" xmlns="http://www.w3.org/2000/svg" xmlns:xlink="http://www.w3.org/1999/xlink">
    <!-- Generator: Sketch 47.1 (45422) - http://www.bohemiancoding.com/sketch -->
    <title>Group 2</title>
    <desc>Created with Sketch.</desc>
    <defs></defs>
    <g id="Page-1" stroke="none" stroke-width="1" fill="none" fill-rule="evenodd">
        <g id="Tablet" transform="translate(-106.000000, -19.000000)" fill-rule="nonzero" fill="#3B8BB9">
            <g id="Group-6" transform="translate(-1.000000, -49.000000)">
                <g id="Group-2" transform="translate(107.000000, 68.000000)">
                    <path d="M8.90140845,0 C9.41971831,0.135211268 9.94929577,0.247887324 10.456338,0.428169014 C15.5267606,2.23098592 17.3408451,8.29295775 14.1183099,12.6309859 C12.6309859,14.6366197 11.1098592,16.6197183 9.6,18.6028169 C8.48450704,20.056338 7.07605634,20.0225352 5.98309859,18.5464789 C4.58591549,16.6535211 3.2,14.771831 1.78028169,12.9014085 C0.923943662,11.7746479 0.304225352,10.5577465 0.0901408451,9.14929577 C0.0788732394,9.09295775 0.0338028169,9.05915493 0,9.01408451 C0,8.1915493 0,7.35774648 0,6.53521127 C0.191549296,6.42253521 0.146478873,6.1971831 0.191549296,6.03943662 C0.766197183,3.70704225 2.15211268,1.9943662 4.24788732,0.845070423 C4.96901408,0.43943662 5.7915493,0.326760563 6.53521127,0 C7.32394366,0 8.11267606,0 8.90140845,0 Z M2.77183099,10.7042254 C2.77183099,11.8422535 3.05352113,12.7549296 3.74084507,13.7014085 C4.83380282,15.1887324 5.92676056,16.6535211 7.04225352,18.1295775 C7.53802817,18.7943662 8.07887324,18.7830986 8.5971831,18.1183099 C9.55492958,16.8676056 10.5014085,15.6056338 11.4478873,14.3549296 C11.8197183,13.8591549 12.2366197,13.3971831 12.4957746,12.8338028 C13.3633803,10.9183099 12.9915493,8.69859155 11.5380282,7.2 C10.0732394,5.67887324 7.92112676,5.2056338 6.0056338,5.96056338 C4.01126761,6.73802817 2.77183099,8.55211268 2.77183099,10.7042254 Z M13.9943662,10.6591549 C15.4140845,7.93239437 14.4788732,4.27042254 11.9323944,2.4 C9.18309859,0.36056338 5.49859155,0.608450704 3.08732394,2.96338028 C0.845070423,5.16056338 0.563380282,8.61971831 1.72394366,10.5690141 C1.82535211,8.81126761 2.43380282,7.33521127 3.69577465,6.17464789 C4.96901408,5.0028169 6.50140845,4.42816901 8.22535211,4.56338028 C11.515493,4.81126761 13.7577465,7.17746479 13.9943662,10.6591549 Z" id="Shape"></path>
                    <path d="M7.32394366,24 C7.10985915,23.7408451 6.78309859,23.684507 6.51267606,23.5492958 C5.03661972,22.8507042 3.56056338,22.1633803 2.09577465,21.4647887 C1.94929577,21.3971831 1.73521127,21.3633803 1.75774648,21.1492958 C1.76901408,20.9802817 1.97183099,20.9577465 2.09577465,20.8901408 C2.5915493,20.6535211 3.07605634,20.428169 3.57183099,20.2028169 C3.76338028,20.1126761 3.95492958,20.0225352 4.16901408,20.1014085 C4.38309859,20.1690141 4.65352113,20.2366197 4.69859155,20.4732394 C4.74366197,20.7323944 4.43943662,20.743662 4.28169014,20.8450704 C4.12394366,20.9577465 3.81971831,20.9464789 3.83098592,21.1943662 C3.84225352,21.3971831 4.10140845,21.4197183 4.25915493,21.4985915 C5.28450704,21.9943662 6.33239437,22.4676056 7.35774648,22.9633803 C7.71830986,23.143662 8.06760563,23.1549296 8.42816901,22.9746479 C9.50985915,22.456338 10.5915493,21.9492958 11.684507,21.4422535 C11.8197183,21.3859155 12.0225352,21.3633803 12.0225352,21.1943662 C12.0225352,20.9915493 11.7859155,20.9915493 11.6619718,20.9014085 C11.6507042,20.8901408 11.628169,20.8901408 11.6169014,20.8788732 C11.4253521,20.743662 10.9859155,20.743662 11.1211268,20.4169014 C11.256338,20.1126761 11.6507042,19.9774648 12,20.1126761 C12.484507,20.2929577 12.9690141,20.5295775 13.4309859,20.7661972 C13.656338,20.8788732 14.0394366,20.9014085 14.0507042,21.171831 C14.0619718,21.4647887 13.6788732,21.4873239 13.4535211,21.5887324 C11.9549296,22.3098592 10.4338028,23.0084507 8.92394366,23.7183099 C8.76619718,23.7971831 8.56338028,23.8197183 8.46197183,24 C8.07887324,24 7.69577465,24 7.32394366,24 Z" id="Shape"></path>
                </g>
            </g>
        </g>
    </g>
</svg>